# xmcd CD database file
#
# Track frame offsets:
#	150
#	14952
#	27712
#	41992
#	58372
#	75792
#	91725
#	106447
#	122565
#	136037
#	150945
#	164237
#	178397
#	201067
#	213262
#	226680
#	239750
#	252342
#	262270
#	271977
#	284637
#	300662
#	313480
#	326450
#	338592
#
# Disc length: 4696 seconds
#
# Revision: 2
# Processed by: cddbd v1.5.1PL2 Copyright (c) Steve Scherf et al.
# Submitted via: CDex 1.51
#
DISCID=79125619
DTITLE=Various Artist - De Nederlands Talige top 100 deel 3  CD 1
DYEAR=1998
DGENRE=Miscellaneous
TTITLE0=De Kast - Woorden zonder woorden
TTITLE1=Frans Bauwer and Marianne Weber - De regenboog
TTITLE2=Ruth Jacott - Hartslag
TTITLE3=Jantje Smit - Ik zing dit lied
TTITLE4=Herman van Veen - Hilversum 3
TTITLE5=BN`RS voor BNN - Hij gaat voor C
TTITLE6=R v/h Groenewoud - Liefde voor muziek
TTITLE7=Drukwerk - Hee Amsterdam
TTITLE8=Erik Mesie - Zonder jou
TTITLE9=Alexander Curly - Hollanders
TTITLE10=Gerard Cox - Die goeie ouwe tijd
TTITLE11=Gerd and Hermien - Alle duiven op de dam
TTITLE12=Hans Vermeulen - Een kus en een knuffel
TTITLE13=Heddy Lester - Mallemolen
TTITLE14=Imca Marina - Viva Espana
TTITLE15=Ivan Heylen - De wilde boeren dochter
TTITLE16=Benny Neyman - Ik weet niet hoe
TTITLE17=Johnny Jordaan - Een pikketanussie
TTITLE18=Lowland Trio - Mijn naam is Haas
TTITLE19=Dutch Boys - Boer Harms
TTITLE20=Dorus - Als ik wist dat je zou komen
TTITLE21=Dingetje - Sambal bij
TTITLE22=Spring and De Groot - Voorbij
TTITLE23=Tim Immers - Roze bril
TTITLE24=Toets Thielemans - Circle of smiles
EXTD=YEAR: 1998
EXTT0=
EXTT1=
EXTT2=
EXTT3=
EXTT4=
EXTT5=
EXTT6=
EXTT7=
EXTT8=
EXTT9=
EXTT10=
EXTT11=
EXTT12=
EXTT13=
EXTT14=
EXTT15=
EXTT16=
EXTT17=
EXTT18=
EXTT19=
EXTT20=
EXTT21=
EXTT22=
EXTT23=
EXTT24=
PLAYORDER=
